:SAMPLES-PER-SECOND 30
:FULLY-SPECIFIED
:DEGREES
234
root  60.0665 24.737 -1.97172 -23.6822 -0.198602 -4.54996
RightUpLeg  -55.1147 -13.9139 1.9097
RightLeg  77.3245 -1.48525 -9.23942
RightFoot  0.717586 0.38881 -3.40091
RightToes  0.000482159 0.542163 -0.142577
Spine  44.1376 -3.15758 9.19526
Spine1  -2.35125 -0.399 -0.83261
HEad  -15.5102 3.89421 -3.16673
LeftShoulder1  11.1873 -16.6727 -48.4042
LeftArm  3.25787 -2.74381 -23.0911
LeftForeArm  34.4853 -16.1162 -5.78959
LeftHand  -0.25398 0.0180481 5.50724
RightShoulder  5.80184 11.4908 32.7463
RightArm  -1.73734 0.667974 37.5137
RightForeArm  5.03697 19.5998 5.00296
RightHand  -1.94091 6.42234 -19.3033
LeftUpLeg  -56.8609 6.93694 2.13281
LeftLeg  75.2254 1.30071 6.8694
LeftFoot  4.07475 -0.616589 4.35402
LeftToes  1.06245e-005 4.65855e-005 -8.18503e-006
235
root  60.0674 24.7414 -1.96515 -23.5794 -0.277328 -4.58156
RightUpLeg  -55.2085 -13.8377 2.00769
RightLeg  77.3024 -1.49193 -9.26995
RightFoot  0.736299 0.389021 -3.40239
RightToes  0.000482159 0.542163 -0.142577
Spine  44.1247 -3.25605 9.35531
Spine1  -2.44162 -0.394307 -1.07785
HEad  -15.5731 3.78609 -3.11141
LeftShoulder1  11.15 -16.7066 -48.1588
LeftArm  3.9289 -2.99774 -23.1387
LeftForeArm  33.6846 -16.7842 -5.52813
LeftHand  -0.25398 0.0180481 5.50724
RightShoulder  5.76528 11.4048 32.7242
RightArm  -1.52201 0.905865 37.4917
RightForeArm  4.99078 19.85 4.95574
RightHand  -1.99566 6.591 -19.5623
LeftUpLeg  -56.9632 7.00199 2.19425
LeftLeg  75.2453 1.29981 6.85332
LeftFoot  4.06415 -0.615617 4.34014
LeftToes  1.06245e-005 4.65855e-005 -8.18503e-006
236
root  60.0707 24.7448 -1.96552 -23.5425 -0.343634 -4.6243
RightUpLeg  -55.2324 -13.8122 2.09548
RightLeg  77.2647 -1.49382 -9.27088
RightFoot  0.768873 0.389927 -3.41735
RightToes  0.000482159 0.542163 -0.142577
Spine  44.2093 -3.41515 9.63716
Spine1  -2.57045 -0.365788 -1.48754
HEad  -15.5245 3.57016 -2.9517
LeftShoulder1  11.1076 -16.7678 -47.8259
LeftArm  4.34747 -3.24233 -23.2259
LeftForeArm  33.2481 -17.2326 -5.3429
LeftHand  -0.25398 0.0180481 5.50724
RightShoulder  5.71582 11.2521 32.7899
RightArm  -1.57668 1.18558 37.473
RightForeArm  5.68443 19.635 4.96497
RightHand  -2.01972 6.78019 -19.497
LeftUpLeg  -56.997 7.00323 2.27346
LeftLeg  75.2476 1.30378 6.87966
LeftFoot  4.07626 -0.614413 4.31933
LeftToes  1.06245e-005 4.65855e-005 -8.18503e-006
237
root  60.0754 24.7436 -1.973 -23.6181 -0.343943 -4.61896
RightUpLeg  -55.1543 -13.8525 2.07373
RightLeg  77.2491 -1.49042 -9.24334
RightFoot  0.786415 0.389853 -3.4199
RightToes  0.000482159 0.542163 -0.142577
Spine  44.3637 -3.53132 9.71763
Spine1  -2.7303 -0.412212 -1.69069
HEad  -15.4394 3.4894 -2.8384
LeftShoulder1  11.0708 -16.8194 -47.5411
LeftArm  4.55743 -3.40242 -23.2291
LeftForeArm  32.9678 -17.4562 -5.25303
LeftHand  -0.25398 0.0180481 5.50724
RightShoulder  5.77221 11.3053 33.0307
RightArm  -1.68539 1.38283 37.2532
RightForeArm  6.26031 19.0479 5.07355
RightHand  -2.01353 6.89281 -19.2702
LeftUpLeg  -56.9135 6.94755 2.2822
LeftLeg  75.2297 1.31035 6.92508
LeftFoot  4.09649 -0.613691 4.30379
LeftToes  1.06245e-005 4.65855e-005 -8.18503e-006
238
root  60.0759 24.741 -1.98336 -23.7374 -0.3341 -4.55542
RightUpLeg  -55.0467 -13.8579 1.98201
RightLeg  77.2522 -1.48782 -9.22705
RightFoot  0.790625 0.389642 -3.42346
RightToes  0.000482159 0.542163 -0.142577
Spine  44.4947 -3.51161 9.54848
Spine1  -2.74755 -0.487394 -1.50924
HEad  -15.4698 3.5832 -2.85481
LeftShoulder1  11.0365 -16.7915 -47.4575
LeftArm  4.87746 -3.61999 -23.1101
LeftForeArm  32.5646 -17.581 -5.23195
LeftHand  -0.25398 0.0180481 5.50724
RightShoulder  5.83822 11.4413 33.1173
RightArm  -1.95238 1.47131 37.0759
RightForeArm  6.42585 18.4326 5.22001
RightHand  -1.97955 6.78405 -19.1185
LeftUpLeg  -56.7803 6.9435 2.22792
LeftLeg  75.2057 1.31416 6.94185
LeftFoot  4.09954 -0.613209 4.2908
LeftToes  1.06245e-005 4.65855e-005 -8.18503e-006
239
root  60.0722 24.7394 -1.99194 -23.8088 -0.337939 -4.47922
RightUpLeg  -54.991 -13.7976 1.89693
RightLeg  77.2524 -1.48945 -9.23956
RightFoot  0.797439 0.389545 -3.43217
RightToes  0.000482159 0.542163 -0.142577
Spine  44.6295 -3.44328 9.40902
Spine1  -2.67609 -0.503711 -1.27074
HEad  -15.5563 3.63434 -2.82045
LeftShoulder1  11.0045 -16.7275 -47.4702
LeftArm  5.13898 -3.92647 -22.999
LeftForeArm  32.3062 -17.6351 -5.2395
LeftHand  -0.25398 0.0180481 5.50724
RightShoulder  5.78125 11.364 32.9373
RightArm  -2.48192 1.43007 37.1533
RightForeArm  6.75073 18.0605 5.28129
RightHand  -1.93132 6.53739 -19.0366
LeftUpLeg  -56.6935 6.98447 2.16594
LeftLeg  75.1801 1.31672 6.93736
LeftFoot  4.09715 -0.612342 4.27169
LeftToes  1.06245e-005 4.65855e-005 -8.18503e-006
240
root  60.0685 24.7396 -1.99752 -23.8216 -0.331557 -4.4277
RightUpLeg  -54.9863 -13.7141 1.83484
RightLeg  77.2526 -1.497 -9.28324
RightFoot  0.814478 0.387538 -3.41478
RightToes  0.000482159 0.542163 -0.142577
Spine  44.8152 -3.43763 9.44247
Spine1  -2.70662 -0.467377 -1.27378
HEad  -15.5707 3.52818 -2.61536
LeftShoulder1  10.9969 -16.7359 -47.4167
LeftArm  4.79382 -4.15534 -22.9388
LeftForeArm  32.5572 -17.516 -5.26828
LeftHand  -0.25398 0.0180481 5.50724
RightShoulder  5.67104 11.1264 32.8174
RightArm  -3.08089 1.25913 37.2517
RightForeArm  7.44726 17.7949 5.28465
RightHand  -1.92153 6.48005 -19.0304
LeftUpLeg  -56.6681 6.98969 2.12393
LeftLeg  75.1492 1.32287 6.94686
LeftFoot  4.1172 -0.61258 4.27075
LeftToes  1.06245e-005 4.65855e-005 -8.18503e-006
